<mxfile host="app.diagrams.net" modified="2023-12-07T00:15:07.126Z" agent="Mozilla/5.0 (Macintosh; Intel Mac OS X 10_15_7) AppleWebKit/537.36 (KHTML, like Gecko) Chrome/119.0.0.0 Safari/537.36" version="21.8.0" etag="Nl-rqd6V8qyh6wdCi65h" type="github">
  <diagram name="Page-1" id="tBKqJ0GVF9nW1sbdtoOr">
    <mxGraphModel>
      <root>
        <mxCell id="0" />
        <mxCell id="1" parent="0" />
      </root>
    </mxGraphModel>
  </diagram>
</mxfile>
